<svg width="66" height="66" viewBox="0 0 66 66" fill="none" xmlns="http://www.w3.org/2000/svg">
<circle cx="33" cy="33" r="33" fill="#3641B7" fill-opacity="0.2"/>
<g clip-path="url(#clip0_1_213)">
<path d="M37.5859 36.5078C39.1784 35.6139 40.5071 34.3161 41.4383 32.7451C42.3694 31.1741 42.87 29.3854 42.8898 27.5594C42.9095 25.7333 42.4476 23.9342 41.5506 22.3435C40.6536 20.7528 39.3532 19.4265 37.7804 18.4984C36.2077 17.5703 34.4181 17.0731 32.5919 17.0569C30.7658 17.0407 28.9677 17.5061 27.3787 18.4062C25.7897 19.3062 24.4659 20.6092 23.5409 22.1837C22.6158 23.7583 22.1221 25.5488 22.1094 27.375C23.7256 26.9406 25.4122 26.8331 27.0705 27.0588C28.7288 27.2845 30.3254 27.8388 31.7667 28.6893C33.208 29.5399 34.4652 30.6695 35.4644 32.012C36.4636 33.3546 37.1849 34.883 37.5859 36.5078Z" fill="#3641B7"/>
<path d="M30.75 30.6016C29.1741 29.6468 27.3727 29.1282 25.5304 29.099C23.6881 29.0698 21.8711 29.531 20.2657 30.4353C18.6604 31.3397 17.3244 32.6547 16.3947 34.2455C15.465 35.8363 14.975 37.6457 14.975 39.4883C14.975 41.3308 15.465 43.1403 16.3947 44.7311C17.3244 46.3219 18.6604 47.6369 20.2657 48.5412C21.8711 49.4456 23.6881 49.9068 25.5304 49.8776C27.3727 49.8484 29.1741 49.3298 30.75 48.375C28.3957 46.0167 27.0733 42.8206 27.0733 39.4883C27.0733 36.156 28.3957 32.9598 30.75 30.6016Z" fill="#3641B7"/>
<path d="M44.6953 30.4922C44.2943 32.117 43.573 33.6454 42.5738 34.988C41.5745 36.3305 40.3174 37.4601 38.8761 38.3107C37.4348 39.1612 35.8382 39.7155 34.1799 39.9412C32.5216 40.1669 30.835 40.0594 29.2188 39.625C29.2314 41.4512 29.7252 43.2417 30.6502 44.8163C31.5753 46.3908 32.899 47.6938 34.488 48.5938C36.077 49.4939 37.8752 49.9593 39.7013 49.9431C41.5274 49.9269 43.317 49.4297 44.8898 48.5016C46.4626 47.5735 47.763 46.2472 48.66 44.6565C49.557 43.0658 50.0189 41.2667 49.9991 39.4406C49.9794 37.6146 49.4788 35.8259 48.5476 34.2549C47.6165 32.6839 46.2878 31.3861 44.6953 30.4922Z" fill="#3641B7"/>
</g>
<defs>
<clipPath id="clip0_1_213">
<rect width="35" height="35" fill="white" transform="translate(15 16)"/>
</clipPath>
</defs>
</svg>
