<svg width="66" height="66" viewBox="0 0 66 66" fill="none" xmlns="http://www.w3.org/2000/svg">
<circle cx="33" cy="33" r="33" fill="black" fill-opacity="0.2"/>
<path d="M47.5938 18.4063L36 17.6406L16.6406 37L25.8828 40.0625L29 49.3594L48.3594 30L47.5938 18.4063ZM36 34.6484L31.3516 39.2969C31.251 39.401 31.1309 39.4843 30.9982 39.5421C30.8655 39.5998 30.7227 39.6308 30.5779 39.6333C30.4332 39.6359 30.2894 39.6099 30.1547 39.5569C30.02 39.5038 29.8971 39.4248 29.793 39.3242C29.6888 39.2237 29.6055 39.1036 29.5478 38.9709C29.4901 38.8381 29.459 38.6953 29.4565 38.5506C29.454 38.4059 29.48 38.262 29.533 38.1274C29.586 37.9927 29.6651 37.8698 29.7656 37.7656L34.4141 33.1172C34.5081 32.9918 34.6279 32.8881 34.7655 32.8131C34.9031 32.7381 35.0552 32.6935 35.2115 32.6824C35.3678 32.6713 35.5247 32.6939 35.6715 32.7487C35.8183 32.8035 35.9517 32.8892 36.0625 33C36.1733 33.1108 36.259 33.2442 36.3138 33.391C36.3686 33.5378 36.3912 33.6947 36.3801 33.851C36.369 34.0073 36.3244 34.1594 36.2494 34.297C36.1744 34.4346 36.0707 34.5544 35.9453 34.6484H36ZM36 28.4688L28.2344 36.2344C28.0237 36.3923 27.7632 36.469 27.5006 36.4504C27.238 36.4317 26.9909 36.3189 26.8047 36.1328C26.6186 35.9466 26.5058 35.6995 26.4871 35.4369C26.4685 35.1743 26.5452 34.9138 26.7031 34.7031L34.4141 26.9375C34.5081 26.8121 34.6279 26.7084 34.7655 26.6334C34.9031 26.5584 35.0552 26.5139 35.2115 26.5028C35.3678 26.4916 35.5247 26.5143 35.6715 26.569C35.8183 26.6238 35.9517 26.7095 36.0625 26.8204C36.1733 26.9312 36.259 27.0645 36.3138 27.2113C36.3686 27.3581 36.3912 27.515 36.3801 27.6713C36.369 27.8276 36.3244 27.9797 36.2494 28.1173C36.1744 28.2549 36.0707 28.3747 35.9453 28.4688H36ZM42.9453 26.1719C42.6381 26.4745 42.2482 26.6795 41.8248 26.7612C41.4014 26.8429 40.9633 26.7976 40.5656 26.631C40.1678 26.4645 39.8281 26.1841 39.5892 25.8251C39.3504 25.4661 39.2229 25.0445 39.2229 24.6133C39.2229 24.1821 39.3504 23.7605 39.5892 23.4015C39.8281 23.0425 40.1678 22.7621 40.5656 22.5955C40.9633 22.429 41.4014 22.3837 41.8248 22.4654C42.2482 22.5471 42.6381 22.7521 42.9453 23.0547C43.152 23.2582 43.3161 23.5009 43.4282 23.7684C43.5402 24.036 43.5979 24.3232 43.5979 24.6133C43.5979 24.9034 43.5402 25.1906 43.4282 25.4581C43.3161 25.7257 43.152 25.9683 42.9453 26.1719Z" fill="black"/>
</svg>
