<svg width="143" height="24" viewBox="0 0 143 24" fill="none" xmlns="http://www.w3.org/2000/svg">
<path d="M6.512 0.248C8.272 0.248 9.816 0.592 11.144 1.28C12.488 1.968 13.52 2.952 14.24 4.232C14.976 5.496 15.344 6.968 15.344 8.648C15.344 10.328 14.976 11.8 14.24 13.064C13.52 14.312 12.488 15.28 11.144 15.968C9.816 16.656 8.272 17 6.512 17H0.656V0.248H6.512ZM6.392 14.144C8.152 14.144 9.512 13.664 10.472 12.704C11.432 11.744 11.912 10.392 11.912 8.648C11.912 6.904 11.432 5.544 10.472 4.568C9.512 3.576 8.152 3.08 6.392 3.08H4.016V14.144H6.392ZM36.1231 0.248V17H32.7631V6.104L28.2751 17H25.7311L21.2191 6.104V17H17.8591V0.248H21.6751L27.0031 12.704L32.3311 0.248H36.1231ZM40.9331 17.168C40.3251 17.168 39.8211 16.984 39.4211 16.616C39.0371 16.232 38.8451 15.76 38.8451 15.2C38.8451 14.64 39.0371 14.176 39.4211 13.808C39.8211 13.424 40.3251 13.232 40.9331 13.232C41.5251 13.232 42.0131 13.424 42.3971 13.808C42.7811 14.176 42.9731 14.64 42.9731 15.2C42.9731 15.76 42.7811 16.232 42.3971 16.616C42.0131 16.984 41.5251 17.168 40.9331 17.168ZM61.6702 13.808H54.9982L53.8942 17H50.3662L56.3902 0.223999H60.3022L66.3262 17H62.7742L61.6702 13.808ZM60.7582 11.12L58.3342 4.112L55.9102 11.12H60.7582ZM73.7859 3.488C74.7779 3.488 75.6499 3.688 76.4019 4.088C77.1539 4.472 77.7459 4.976 78.1779 5.6V3.704H81.5619V17.096C81.5619 18.328 81.3139 19.424 80.8179 20.384C80.3219 21.36 79.5779 22.128 78.5859 22.688C77.5939 23.264 76.3939 23.552 74.9859 23.552C73.0979 23.552 71.5459 23.112 70.3299 22.232C69.1299 21.352 68.4499 20.152 68.2899 18.632H71.6259C71.8019 19.24 72.1779 19.72 72.7539 20.072C73.3459 20.44 74.0579 20.624 74.8899 20.624C75.8659 20.624 76.6579 20.328 77.2659 19.736C77.8739 19.16 78.1779 18.28 78.1779 17.096V15.032C77.7459 15.656 77.1459 16.176 76.3779 16.592C75.6259 17.008 74.7619 17.216 73.7859 17.216C72.6659 17.216 71.6419 16.928 70.7139 16.352C69.7859 15.776 69.0499 14.968 68.5059 13.928C67.9779 12.872 67.7139 11.664 67.7139 10.304C67.7139 8.96 67.9779 7.768 68.5059 6.728C69.0499 5.688 69.7779 4.888 70.6899 4.328C71.6179 3.768 72.6499 3.488 73.7859 3.488ZM78.1779 10.352C78.1779 9.536 78.0179 8.84 77.6979 8.264C77.3779 7.672 76.9459 7.224 76.4019 6.92C75.8579 6.6 75.2739 6.44 74.6499 6.44C74.0259 6.44 73.4499 6.592 72.9219 6.896C72.3939 7.2 71.9619 7.648 71.6259 8.24C71.3059 8.816 71.1459 9.504 71.1459 10.304C71.1459 11.104 71.3059 11.808 71.6259 12.416C71.9619 13.008 72.3939 13.464 72.9219 13.784C73.4659 14.104 74.0419 14.264 74.6499 14.264C75.2739 14.264 75.8579 14.112 76.4019 13.808C76.9459 13.488 77.3779 13.04 77.6979 12.464C78.0179 11.872 78.1779 11.168 78.1779 10.352ZM97.2035 10.064C97.2035 10.544 97.1715 10.976 97.1075 11.36H87.3875C87.4675 12.32 87.8035 13.072 88.3955 13.616C88.9875 14.16 89.7155 14.432 90.5795 14.432C91.8275 14.432 92.7155 13.896 93.2435 12.824H96.8675C96.4835 14.104 95.7475 15.16 94.6595 15.992C93.5715 16.808 92.2355 17.216 90.6515 17.216C89.3715 17.216 88.2195 16.936 87.1955 16.376C86.1875 15.8 85.3955 14.992 84.8195 13.952C84.2595 12.912 83.9795 11.712 83.9795 10.352C83.9795 8.976 84.2595 7.768 84.8195 6.728C85.3795 5.688 86.1635 4.888 87.1715 4.328C88.1795 3.768 89.3395 3.488 90.6515 3.488C91.9155 3.488 93.0435 3.76 94.0355 4.304C95.0435 4.848 95.8195 5.624 96.3635 6.632C96.9235 7.624 97.2035 8.768 97.2035 10.064ZM93.7235 9.104C93.7075 8.24 93.3955 7.552 92.7875 7.04C92.1795 6.512 91.4355 6.248 90.5555 6.248C89.7235 6.248 89.0195 6.504 88.4435 7.016C87.8835 7.512 87.5395 8.208 87.4115 9.104H93.7235ZM107.024 3.512C108.608 3.512 109.888 4.016 110.864 5.024C111.84 6.016 112.328 7.408 112.328 9.2V17H108.968V9.656C108.968 8.6 108.704 7.792 108.176 7.232C107.648 6.656 106.928 6.368 106.016 6.368C105.088 6.368 104.352 6.656 103.808 7.232C103.28 7.792 103.016 8.6 103.016 9.656V17H99.656V3.704H103.016V5.36C103.464 4.784 104.032 4.336 104.72 4.016C105.424 3.68 106.192 3.512 107.024 3.512ZM114.659 10.352C114.659 8.976 114.939 7.776 115.499 6.752C116.059 5.712 116.835 4.912 117.827 4.352C118.819 3.776 119.955 3.488 121.235 3.488C122.883 3.488 124.243 3.904 125.315 4.736C126.403 5.552 127.131 6.704 127.499 8.192H123.875C123.683 7.616 123.355 7.168 122.891 6.848C122.443 6.512 121.883 6.344 121.211 6.344C120.251 6.344 119.491 6.696 118.931 7.4C118.371 8.088 118.091 9.072 118.091 10.352C118.091 11.616 118.371 12.6 118.931 13.304C119.491 13.992 120.251 14.336 121.211 14.336C122.571 14.336 123.459 13.728 123.875 12.512H127.499C127.131 13.952 126.403 15.096 125.315 15.944C124.227 16.792 122.867 17.216 121.235 17.216C119.955 17.216 118.819 16.936 117.827 16.376C116.835 15.8 116.059 15 115.499 13.976C114.939 12.936 114.659 11.728 114.659 10.352ZM142.681 3.704L134.449 23.288H130.873L133.753 16.664L128.425 3.704H132.193L135.625 12.992L139.105 3.704H142.681Z" fill="#0F0607"/>
</svg>
