<svg width="75" height="75" viewBox="0 0 75 75" fill="none" xmlns="http://www.w3.org/2000/svg">
<circle cx="37.5" cy="37.5" r="37.5" fill="#FFA028" fill-opacity="0.2"/>
<path d="M44.7188 43.0781L53.9062 52.3203V36.7344L44.7188 43.0781ZM21.0938 36.5156V52.3203L30.2812 43.0781L21.0938 36.5156ZM33.2891 43.1328L22.625 53.9062H52.375L41.7109 43.1328C39.9609 41.4375 35.0391 41.4375 33.2891 43.1328ZM51.7188 33.4531V35.5859L53.0859 34.6016L51.7188 33.4531ZM23.2812 33.4531L22.0234 34.4922L23.2812 35.3672V33.4531Z" fill="#FFA028"/>
<path d="M43.0781 41.4922L49.5312 37.0625V21.0938H25.4688V37.0625L31.8125 41.4922C34.4375 39.0859 40.5078 39.0859 43.0781 41.4922ZM45.1562 32.0312H33.125V29.8438H45.1562V32.0312ZM29.8438 25.4688H35.3125V27.6562H29.8438V25.4688ZM29.8438 34.2188H45.1562V36.4062H29.8438V34.2188Z" fill="#FFA028"/>
</svg>
