<svg width="75" height="75" viewBox="0 0 75 75" fill="none" xmlns="http://www.w3.org/2000/svg">
<circle cx="37.5" cy="37.5" r="37.5" fill="#FFA028" fill-opacity="0.2"/>
<path d="M46.25 52.8125V50.0781C44.0625 50.0781 40.8124 46.9905 39.145 45.6944C38.6656 45.347 38.0884 45.1607 37.4964 45.1622C36.9044 45.1638 36.3281 45.3532 35.8506 45.7031C34.1963 47.0113 30.9375 50.0781 28.75 50.0781V52.8125H46.25ZM37.5 40.2344C37.7308 40.2344 38.6391 38.1267 39.9719 37.2474L42.9939 35.1249C43.4133 34.8264 43.8013 34.4861 44.1522 34.1094C38.9569 36.2039 35.3524 32.4688 30.9829 34.2188L30.9605 34.2237C31.2808 34.5556 31.6306 34.8578 32.0055 35.1266C32.0055 35.1266 34.2707 36.7207 35.0276 37.249C36.4177 38.2181 37.0811 40.2344 37.5 40.2344Z" fill="#FFA028"/>
<path d="M33.5494 32.6405C34.7859 32.6819 36.0144 32.8567 37.2134 33.1616C38.3767 33.4579 39.5684 33.6286 40.7681 33.6708C41.7882 33.6742 42.7991 33.4779 43.7437 33.0927L45.357 32.442C45.9427 31.3386 46.2493 30.1086 46.25 28.8594V22.1875H28.75V28.8594C28.752 30.4446 29.2466 31.9901 30.1653 33.282L30.6575 33.1687C31.5796 32.8122 32.5608 32.633 33.5494 32.6405ZM42.9945 40.265L40.096 38.2602C40.096 38.2602 39.752 38.5544 39.6859 38.6364C39.2537 39.2059 38.8868 39.822 38.5921 40.4734C38.5274 40.715 38.3859 40.929 38.1889 41.0832C37.9919 41.2374 37.7501 41.3234 37.5 41.3281C37.2572 41.3173 37.0231 41.2348 36.8272 41.0911C36.6313 40.9473 36.4823 40.7487 36.3991 40.5204C36.0745 39.8725 35.6546 39.2769 35.1534 38.7534C35.0281 38.6337 34.7547 38.3318 34.7547 38.3318L32.0061 40.265C31.0003 40.9713 30.1794 41.9094 29.6126 43C29.0459 44.0905 28.75 45.3015 28.75 46.5305V48.9844C30.1855 48.9844 32.7159 46.8784 34.2275 45.62C34.5393 45.3578 34.8543 45.0995 35.1725 44.8451C35.842 44.3433 36.6555 44.0709 37.4922 44.0683C38.3288 44.0658 39.144 44.3332 39.8166 44.8309C40.1277 45.0726 40.4892 45.3723 40.872 45.6895C42.3584 46.9221 44.8473 48.9844 46.25 48.9844V46.5305C46.2501 45.3016 45.9543 44.0906 45.3876 43.0001C44.821 41.9095 44.0001 40.9714 42.9945 40.265Z" fill="#FFA028"/>
<path d="M47.8906 55H27.1094C26.9643 55 26.8252 54.9424 26.7227 54.8398C26.6201 54.7373 26.5625 54.5982 26.5625 54.4531C26.5625 54.3081 26.6201 54.169 26.7227 54.0664C26.8252 53.9639 26.9643 53.9062 27.1094 53.9062H47.8906C48.0357 53.9062 48.1748 53.9639 48.2773 54.0664C48.3799 54.169 48.4375 54.3081 48.4375 54.4531C48.4375 54.5982 48.3799 54.7373 48.2773 54.8398C48.1748 54.9424 48.0357 55 47.8906 55ZM47.8906 21.0938H27.1094C26.9643 21.0938 26.8252 21.0361 26.7227 20.9336C26.6201 20.831 26.5625 20.6919 26.5625 20.5469C26.5625 20.4018 26.6201 20.2627 26.7227 20.1602C26.8252 20.0576 26.9643 20 27.1094 20H47.8906C48.0357 20 48.1748 20.0576 48.2773 20.1602C48.3799 20.2627 48.4375 20.4018 48.4375 20.5469C48.4375 20.6919 48.3799 20.831 48.2773 20.9336C48.1748 21.0361 48.0357 21.0938 47.8906 21.0938Z" fill="#FFA028"/>
</svg>
