<svg width="75" height="75" viewBox="0 0 75 75" fill="none" xmlns="http://www.w3.org/2000/svg">
<circle cx="37.5" cy="37.5" r="37.5" fill="#FFA028" fill-opacity="0.2"/>
<path d="M40.8359 48C36.4609 47.3984 36.4609 45.8125 36.4609 44.9375V44.4453C37.575 43.4136 38.3718 42.0857 38.7578 40.6172C40.0703 40.6172 40.3984 37.8281 40.3984 37.4453C40.3984 37.0625 40.2891 35.4766 39.6875 35.3125C41.875 27.6562 35.3125 24.375 29.625 28.3125C27.2188 28.3125 26.4531 31.8125 27.3281 35.3125C26.7266 35.3125 26.6172 36.9531 26.6172 37.3906C26.6172 37.8281 26.9453 40.5625 28.2578 40.5625C28.6953 42.1484 29.8984 43.4609 30.9375 44.3906V44.9375C30.9375 45.8125 30.6094 47.4531 26.1797 48C21.75 48.5469 21.0938 52.8125 21.0938 52.8125H45.1562C45.1562 52.8125 45.2109 48.6016 40.8359 48Z" fill="#FFA028"/>
<path d="M49.3672 44.0616C44.9922 43.1866 45.1562 41.4366 45.1562 40.5616V39.6866C47.5153 39.6622 49.8638 39.3686 52.1562 38.8116C50.3516 37.007 48.6563 36.2413 48.6563 28.6945C48.6563 19.7804 39.9063 22.5695 39.9063 22.5695C39.1285 22.5324 38.3541 22.6936 37.6558 23.038C36.9574 23.3824 36.3581 23.8986 35.9141 24.5382C37.827 24.8243 39.5532 25.8443 40.7266 27.382C42.2031 29.296 42.6406 31.921 42.0391 34.8195C42.3988 35.6287 42.585 36.5042 42.5859 37.3898C42.5859 38.4835 42.1484 41.1632 40.4531 42.257C40.0413 43.3334 39.4495 44.332 38.7031 45.2101C39.4395 45.5728 40.2369 45.7953 41.0547 45.8663C41.9903 45.9414 42.9005 46.2084 43.7285 46.6506C44.5564 47.0928 45.2845 47.7008 45.8672 48.4366H53.9062C53.9062 48.4366 53.9062 44.9913 49.3672 44.0616Z" fill="#FFA028"/>
</svg>
