<svg width="66" height="66" viewBox="0 0 66 66" fill="none" xmlns="http://www.w3.org/2000/svg">
<circle cx="33" cy="33" r="33" fill="#FDB400" fill-opacity="0.2"/>
<path d="M45.625 22.7266C43.1901 22.7561 40.7739 22.2971 38.5195 21.3765C36.2651 20.456 34.2183 19.0926 32.5 17.3672C30.7817 19.0926 28.7348 20.456 26.4804 21.3765C24.226 22.2971 21.8099 22.7561 19.375 22.7266C19.375 22.7266 18.2265 42.0859 32.5 49.6328C46.7734 42.0859 45.625 22.7266 45.625 22.7266ZM40.375 29.2344L31.9531 37.6562L27.3593 33.0625C27.2014 32.8519 27.1247 32.5913 27.1433 32.3287C27.162 32.0661 27.2748 31.819 27.4609 31.6329C27.6471 31.4467 27.8942 31.3339 28.1568 31.3153C28.4194 31.2966 28.68 31.3733 28.8906 31.5312L31.9531 34.5391L38.789 27.7031C38.9997 27.5452 39.2602 27.4685 39.5228 27.4871C39.7854 27.5058 40.0325 27.6186 40.2187 27.8047C40.4048 27.9909 40.5176 28.238 40.5363 28.5006C40.5549 28.7632 40.4783 29.0237 40.3203 29.2344H40.375Z" fill="#FDB400"/>
</svg>
