<svg width="66" height="66" viewBox="0 0 66 66" fill="none" xmlns="http://www.w3.org/2000/svg">
<circle cx="33" cy="33" r="33" fill="#FF5670" fill-opacity="0.2"/>
<path d="M47.0545 42.8442C47.1224 42.4685 47.1568 42.0875 47.1573 41.7056C47.1559 41.2918 47.1151 40.8791 47.0354 40.473L48.723 39.499L46.5355 35.7091L44.8222 36.6984C44.2184 36.1878 43.5273 35.7904 42.7823 35.5254V33.502H38.4073V35.5254C37.6691 35.7875 36.9839 36.1795 36.3839 36.6831L34.6984 35.7091L32.5109 39.499L34.1581 40.4495C34.0749 40.8636 34.0328 41.2849 34.0323 41.7073C34.0339 42.0971 34.0705 42.4861 34.1417 42.8694L32.3304 43.9139L34.5179 47.7037L36.3122 46.6674C36.9285 47.2007 37.6385 47.6146 38.4062 47.888V49.9115H42.7812V47.888C43.5578 47.6112 44.2758 47.1916 44.8982 46.651L46.7187 47.7021L48.9062 43.9123L47.0545 42.8442ZM40.6172 44.44C40.0764 44.44 39.5478 44.2796 39.0981 43.9792C38.6484 43.6787 38.298 43.2517 38.091 42.752C37.884 42.2524 37.8299 41.7026 37.9354 41.1722C38.0409 40.6418 38.3013 40.1545 38.6837 39.7721C39.0662 39.3897 39.5534 39.1293 40.0838 39.0238C40.6142 38.9183 41.164 38.9724 41.6636 39.1794C42.1633 39.3863 42.5903 39.7368 42.8908 40.1865C43.1912 40.6362 43.3516 41.1648 43.3516 41.7056C43.3516 42.0647 43.2809 42.4203 43.1435 42.752C43.0061 43.0838 42.8046 43.3852 42.5507 43.6391C42.2968 43.893 41.9954 44.0944 41.6636 44.2319C41.3319 44.3693 40.9763 44.44 40.6172 44.44Z" fill="#FF5670"/>
<path d="M30.8255 38.0451L32.1861 35.6875H16.0938V42.25C16.0938 42.5401 16.209 42.8183 16.4141 43.0234C16.6192 43.2285 16.8974 43.3438 17.1875 43.3438H30.2157C30.3664 42.7844 30.7328 42.3077 31.2345 42.0181L31.8443 41.6665V41.6413L31.4172 41.3947C30.9226 41.0954 30.5587 40.621 30.3978 40.0658C30.3316 39.7174 30.3354 39.3594 30.4088 39.0125C30.4822 38.6656 30.6238 38.3368 30.8255 38.0451ZM21.0156 40.6094C20.6911 40.6094 20.3739 40.5132 20.1041 40.3329C19.8343 40.1526 19.6241 39.8964 19.4999 39.5966C19.3757 39.2968 19.3432 38.9669 19.4065 38.6487C19.4698 38.3304 19.6261 38.0381 19.8555 37.8087C20.085 37.5792 20.3773 37.423 20.6956 37.3596C21.0138 37.2963 21.3437 37.3288 21.6435 37.453C21.9433 37.5772 22.1995 37.7875 22.3798 38.0573C22.56 38.3271 22.6562 38.6443 22.6562 38.9688C22.6562 39.4039 22.4834 39.8212 22.1757 40.1288C21.868 40.4365 21.4507 40.6094 21.0156 40.6094ZM38.4062 31.3158H42.7812C43.1219 31.3162 43.4577 31.3965 43.7616 31.5503C44.0655 31.704 44.3292 31.927 44.5312 32.2012V26.9375H16.0938V33.5H36.2188C36.2196 32.9204 36.4505 32.3649 36.8606 31.9553C37.2708 31.5458 37.8267 31.3158 38.4062 31.3158ZM21.0156 31.8594C20.6911 31.8594 20.3739 31.7632 20.1041 31.5829C19.8343 31.4026 19.6241 31.1464 19.4999 30.8466C19.3757 30.5468 19.3432 30.2169 19.4065 29.8987C19.4698 29.5804 19.6261 29.2881 19.8555 29.0587C20.085 28.8292 20.3773 28.673 20.6956 28.6096C21.0138 28.5463 21.3437 28.5788 21.6435 28.703C21.9433 28.8272 22.1995 29.0375 22.3798 29.3073C22.56 29.5771 22.6562 29.8943 22.6562 30.2188C22.6562 30.6539 22.4834 31.0712 22.1757 31.3788C21.868 31.6865 21.4507 31.8594 21.0156 31.8594ZM30.3125 30.2188C30.3125 29.9287 30.4277 29.6505 30.6329 29.4454C30.838 29.2402 31.1162 29.125 31.4062 29.125H40.1562C40.4463 29.125 40.7245 29.2402 40.9296 29.4454C41.1348 29.6505 41.25 29.9287 41.25 30.2188C41.25 30.5088 41.1348 30.787 40.9296 30.9921C40.7245 31.1973 40.4463 31.3125 40.1562 31.3125H31.4062C31.1162 31.3125 30.838 31.1973 30.6329 30.9921C30.4277 30.787 30.3125 30.5088 30.3125 30.2188ZM44.5312 18.1875C44.5312 17.8974 44.416 17.6192 44.2109 17.4141C44.0058 17.209 43.7276 17.0938 43.4375 17.0938H17.1875C16.8974 17.0938 16.6192 17.209 16.4141 17.4141C16.209 17.6192 16.0938 17.8974 16.0938 18.1875V24.75H44.5312V18.1875ZM21.0156 23.1094C20.6911 23.1094 20.3739 23.0132 20.1041 22.8329C19.8343 22.6526 19.6241 22.3964 19.4999 22.0966C19.3757 21.7968 19.3432 21.4669 19.4065 21.1487C19.4698 20.8304 19.6261 20.5381 19.8555 20.3087C20.085 20.0792 20.3773 19.923 20.6956 19.8596C21.0138 19.7963 21.3437 19.8288 21.6435 19.953C21.9433 20.0772 22.1995 20.2875 22.3798 20.5573C22.56 20.8271 22.6562 21.1443 22.6562 21.4688C22.6562 21.9039 22.4834 22.3212 22.1757 22.6288C21.868 22.9365 21.4507 23.1094 21.0156 23.1094ZM40.1562 22.5625H31.4062C31.1162 22.5625 30.838 22.4473 30.6329 22.2421C30.4277 22.037 30.3125 21.7588 30.3125 21.4688C30.3125 21.1787 30.4277 20.9005 30.6329 20.6954C30.838 20.4902 31.1162 20.375 31.4062 20.375H40.1562C40.4463 20.375 40.7245 20.4902 40.9296 20.6954C41.1348 20.9005 41.25 21.1787 41.25 21.4688C41.25 21.7588 41.1348 22.037 40.9296 22.2421C40.7245 22.4473 40.4463 22.5625 40.1562 22.5625Z" fill="#FF5670"/>
</svg>
